<?xml version="1.0" encoding="UTF-8" standalone="no"?><!DOCTYPE svg PUBLIC "-//W3C//DTD SVG 1.1//EN" "http://www.w3.org/Graphics/SVG/1.1/DTD/svg11.dtd"><svg width="100%" height="100%" viewBox="0 0 2301 2310" version="1.1" xmlns="http://www.w3.org/2000/svg" xmlns:xlink="http://www.w3.org/1999/xlink" xml:space="preserve" xmlns:serif="http://www.serif.com/" style="fill-rule:evenodd;clip-rule:evenodd;stroke-linejoin:round;stroke-miterlimit:2;"><path d="M2299.77,1252.66c-8.634,-1.383 -17.473,-0.878 -26.223,-0.878c-172.755,0 -321.855,98.406 -394.888,242.711c-3.517,6.134 -6.573,12.245 -9.189,18.378c-87.223,180.206 -241.061,304.028 -378.7,368.634c-42.156,19.794 -84.4,35.438 -129.006,47.244c-67.733,18.8 -138.494,28.383 -211.878,28.406c-331.389,-0.095 -615.555,-199.884 -738.844,-485.812c117.2,-52.477 221.717,-128.15 306.555,-221.294c44.145,198.028 221.156,345.783 432.289,345.9c69.006,-0.022 134.956,-15.761 193.056,-44.606c84.4,-40.672 149.144,-101.016 201.6,-197.222c-0,0 13.561,-27.989 15.322,-32.8c81.322,-155.672 212.083,-281.622 372.128,-356.411c78.961,-44.7 238.45,-78.217 341.805,-74.328c-119.466,-510.372 -577.15,-890.583 -1123.91,-890.583c-603.355,-0 -1098.31,462.872 -1149.88,1052.83c8.728,0.439 17.478,0.878 26.206,0.878c172.727,-0 321.85,-98.4 394.883,-242.706c3.494,-6.111 6.572,-12.25 9.189,-18.361c87.222,-180.228 241.066,-304.05 378.705,-368.656c42.15,-19.789 84.395,-35.416 129,-47.244c67.734,-18.772 138.5,-28.378 211.878,-28.406c331.389,0.073 616.228,202.061 739.517,487.989c0.022,0.161 0.25,0.534 0.3,0.739c-193.772,87.222 -352.5,237.733 -449.978,425.628l-277.522,-0c-67.872,-0 -122.895,-55.028 -122.895,-122.895l0,-113.588c0,-5.95 4.811,-10.762 10.739,-10.762l521.045,0c-58.845,-176.255 -225.811,-305.811 -421.206,-305.905c-69.005,0.044 -134.955,15.789 -193.055,44.605c-84.4,40.673 -149.145,101.023 -201.595,197.223c0,-0 -13.567,27.989 -15.328,32.8c-81.316,155.672 -212.061,281.644 -372.127,356.411c-79.1,44.794 -235.234,78.5 -338.567,74.472c-0.067,-0 -4.006,-0.139 -4.095,-0.139c118.078,512.245 576.667,894.306 1124.79,894.306c604.584,-0 1100.35,-464.817 1150.16,-1056.53c-0.088,-0 -0.183,-0 -0.277,-0.028Z" style="fill:#c31e59;fill-rule:nonzero;"/></svg>