<svg
   xmlns:dc="http://purl.org/dc/elements/1.1/"
   xmlns:cc="http://creativecommons.org/ns#"
   xmlns:rdf="http://www.w3.org/1999/02/22-rdf-syntax-ns#"
   xmlns:svg="http://www.w3.org/2000/svg"
   xmlns="http://www.w3.org/2000/svg"
   viewBox="0 0 117.0 193.492"
   height="193.492"
   width="117.0"
   xml:space="preserve"
   id="svg2"
   version="1.1"><metadata
     id="metadata8"><rdf:RDF><cc:Work
         rdf:about=""><dc:format>image/svg+xml</dc:format><dc:type
           rdf:resource="http://purl.org/dc/dcmitype/StillImage" /></cc:Work></rdf:RDF></metadata><defs
     id="defs6"><clipPath
       id="clipPath14"
       clipPathUnits="userSpaceOnUse"><path
         id="path12"
         d="M 0,0 H 612 V 792 H 0 Z" /></clipPath></defs><g
     clip-path="url(#clipPath14)"
     transform="matrix(1.3333333,0,0,-1.3333333,-251.31333,792.25733)"
     id="g10"><g
       transform="translate(260.32544,450.78247)"
       id="g16"><path
         id="path18"
         style="fill:none;stroke:#FFFFFF;stroke-width:1;stroke-linecap:round;stroke-linejoin:round;stroke-miterlimit:10;stroke-dasharray:none;stroke-opacity:1"
         d="m 0,0 1.172,0.061 1.16,0.181 1.135,0.301 1.097,0.416 1.049,0.528 0.988,0.633 0.918,0.732 0.837,0.822 m -31.738,10.415 -0.276,-1.559 -0.056,-1.581 0.165,-1.574 0.382,-1.535 0.592,-1.468 0.791,-1.371 0.974,-1.247 1.138,-1.099 1.28,-0.931 1.397,-0.743 1.487,-0.541 1.548,-0.33 1.578,-0.11 m -5.619,52.229 0.694,0.1 0.697,-0.082 0.652,-0.259 0.563,-0.419 0.436,-0.55 0.278,-0.644 0.103,-0.694 -0.08,-0.697 m -25.909,0 -0.08,0.697 0.103,0.694 0.278,0.644 0.436,0.55 0.563,0.419 0.652,0.259 0.696,0.082 0.695,-0.1 M -42.843,0 l 1.578,0.11 1.548,0.33 1.487,0.541 1.397,0.743 1.28,0.931 1.138,1.099 0.974,1.247 0.791,1.371 0.592,1.468 0.382,1.535 0.164,1.574 -0.056,1.581 -0.275,1.559 m -31.738,-10.415 0.837,-0.822 0.918,-0.732 0.988,-0.633 1.049,-0.528 1.097,-0.416 1.135,-0.301 1.16,-0.181 L -55.225,0 m -14.907,15.229 0.048,-1.05 0.146,-1.042 0.242,-1.023 0.336,-0.997 0.426,-0.961 0.514,-0.918 0.596,-0.866 0.674,-0.807 m 2.417,123.667 -1.179,-0.833 -1.064,-0.976 -0.931,-1.104 -0.784,-1.213 -0.623,-1.302 -0.452,-1.372 -0.274,-1.417 -0.092,-1.441 m 85.039,0 -0.092,1.441 -0.274,1.417 -0.452,1.372 -0.623,1.302 -0.784,1.213 -0.931,1.104 -1.064,0.976 -1.179,0.833 m 2.416,-123.667 0.675,0.807 0.596,0.866 0.514,0.918 0.426,0.961 0.336,0.997 0.241,1.023 0.146,1.042 0.049,1.05 m -75.382,89.347 0.071,-0.229 0.109,-0.213 0.143,-0.192 0.174,-0.165 0.198,-0.134 0.219,-0.098 0.231,-0.06 0.239,-0.02 m 0,0 H 3.866 m 0,0 0.238,0.02 0.232,0.06 0.219,0.098 0.198,0.134 0.174,0.165 0.143,0.192 0.108,0.213 0.072,0.229 m 0,0 0.402,2.106 0.278,2.126 0.154,2.138 0.029,2.144 -0.096,2.142 -0.22,2.133 -0.344,2.116 -0.467,2.093 m 0,0 -0.012,0.18 -0.034,0.177 -0.056,0.172 -0.078,0.162 -0.098,0.152 -0.117,0.138 -0.133,0.122 -0.147,0.104 m 0,0 -3.238,1.857 -3.346,1.655 -3.441,1.448 -3.522,1.234 -3.592,1.016 -3.648,0.794 -3.689,0.569 -3.717,0.343 -3.731,0.114 -3.731,-0.114 -3.717,-0.343 -3.689,-0.569 -3.647,-0.794 -3.592,-1.016 -3.523,-1.234 -3.44,-1.448 -3.346,-1.655 -3.238,-1.857 m 0,0 -0.148,-0.104 -0.133,-0.122 -0.116,-0.138 -0.098,-0.152 -0.078,-0.162 -0.056,-0.172 -0.035,-0.177 -0.011,-0.18 m 0,0 -0.467,-2.093 -0.344,-2.116 -0.221,-2.133 -0.095,-2.142 0.029,-2.144 0.154,-2.138 0.278,-2.126 0.402,-2.106 m 46.42,-89.654 8.624,45.665 M -9.877,9.88 l -0.927,0.103 -0.882,0.301 -0.795,0.487 -0.67,0.648 -0.512,0.779 -0.331,0.871 -0.133,0.923 0.072,0.93 M 0.734,9.88 H -9.877 m 10.611,0 0.829,0.082 0.798,0.242 0.735,0.393 0.644,0.529 0.529,0.644 0.393,0.735 0.242,0.798 0.082,0.829 m 0,76.718 V 14.132 M 2.293,93.543 2.818,93.492 3.323,93.338 3.789,93.089 4.197,92.755 4.532,92.346 4.781,91.881 4.934,91.376 4.986,90.85 m -2.693,2.693 h -59.811 m -2.693,-2.693 0.052,0.526 0.153,0.505 0.249,0.465 0.335,0.409 0.408,0.334 0.465,0.249 0.506,0.154 0.525,0.051 M -60.211,90.85 V 14.132 m 4.252,-4.252 -0.83,0.082 -0.797,0.242 -0.735,0.393 -0.645,0.529 -0.528,0.644 -0.393,0.735 -0.242,0.798 -0.082,0.829 m 4.252,-4.252 h 10.611 m 0,0 0.926,0.103 0.882,0.301 0.795,0.487 0.67,0.648 0.513,0.779 0.331,0.871 0.132,0.923 -0.071,0.93 m -8.625,45.665 8.625,-45.665 m -6.151,48.852 -0.561,-0.096 -0.528,-0.212 -0.471,-0.318 -0.395,-0.41 -0.299,-0.484 -0.191,-0.536 -0.075,-0.564 0.046,-0.567 m 3.086,3.076 -0.075,0.021 -0.075,0.02 -0.076,0.017 -0.077,0.015 -0.077,0.013 -0.077,0.011 -0.077,0.008 -0.078,0.006 m 0.612,-0.111 3.739,-1.018 3.792,-0.796 3.833,-0.57 3.859,-0.343 3.873,-0.115 3.874,0.115 3.859,0.343 3.833,0.57 3.792,0.796 3.739,1.018 m 0.612,0.111 -0.078,-0.006 -0.077,-0.008 -0.078,-0.011 -0.076,-0.013 -0.077,-0.015 -0.076,-0.017 -0.075,-0.02 -0.075,-0.021 m 3.085,-3.076 0.046,0.567 -0.074,0.564 -0.191,0.536 -0.299,0.484 -0.395,0.41 -0.471,0.318 -0.529,0.212 -0.56,0.096 m 17.412,67.458 -3.564,2.052 -3.677,1.841 -3.777,1.625 -3.865,1.403 -3.941,1.176 -4.001,0.946 -4.05,0.713 -4.084,0.476 -4.106,0.238 h -4.112 l -4.105,-0.238 -4.084,-0.476 -4.05,-0.713 -4.002,-0.946 -3.94,-1.176 -3.865,-1.403 -3.777,-1.625 -3.677,-1.841 -3.564,-2.052 M 14.907,15.229 V 121.574 M 8.356,3.674 11.924,7.565 M -12.382,0 H 0 m -14.658,48.984 -8.724,-34.895 m -13.842,38.14 2.363,-0.579 2.397,-0.416 2.42,-0.25 2.431,-0.084 2.432,0.084 2.42,0.25 2.397,0.416 2.363,0.579 m -13.842,-38.14 -8.724,34.895 M -55.225,0 h 12.382 m -24.307,7.565 3.569,-3.891 m -6.551,117.9 V 15.229" /></g></g></svg>