<?xml version="1.0" encoding="UTF-8" standalone="yes"?>
<svg xmlns="http://www.w3.org/2000/svg" xmlns:xlink="http://www.w3.org/1999/xlink"
  width="560pt" height="900pt" viewBox="0 0 560 900">
<g>
<path style="stroke:#FFFFFF; stroke-width:5; stroke-linejoin:round; stroke-linecap:round; fill:none" d="M 118.455 318.566C 113.436 318.566 110.163 322.929 107.089 327.341C 104.015 331.753 101.139 336.212 98.2778 341.334C 95.4165 346.456 92.5694 352.24 89.5279 360.157C 86.4865 368.074 83.2507 378.124 81.7926 389.384C 80.3346 400.643 80.6542 413.11 80.0612 430.144"/>
<path style="stroke:#FFFFFF; stroke-width:5; stroke-linejoin:round; stroke-linecap:round; fill:none" d="M 403.953 318.566L 118.455 318.566"/>
<path style="stroke:#FFFFFF; stroke-width:5; stroke-linejoin:round; stroke-linecap:round; fill:none" d="M 442.347 430.144C 441.754 413.11 442.073 400.643 440.615 389.384C 439.157 378.124 435.921 368.074 432.88 360.157C 429.838 352.24 426.991 346.456 424.13 341.334C 421.269 336.212 418.393 331.753 415.319 327.341C 412.245 322.929 408.972 318.566 403.953 318.566"/>
<path style="stroke:#FFFFFF; stroke-width:5; stroke-linejoin:round; stroke-linecap:round; fill:none" d="M 442.347 623.945L 442.347 430.144"/>
<path style="stroke:#FFFFFF; stroke-width:5; stroke-linejoin:round; stroke-linecap:round; fill:none" d="M 261.204 494.518C 267.756 494.43 274.009 492.348 280.097 489.647C 286.186 486.947 292.111 483.627 298.216 480.579C 304.321 477.531 310.607 474.754 317.305 472.547C 324.003 470.34 331.113 468.703 338.397 468.593C 345.681 468.484 353.138 469.902 360.033 473.103C 366.927 476.303 373.257 481.287 378.592 488.05C 383.927 494.814 388.266 503.358 389.711 512.96C 391.155 522.562 389.705 533.221 387.935 544.223C 386.165 555.224 384.074 566.567 381.337 577.553C 378.6 588.539 375.217 599.167 371.404 609.389C 367.591 619.611 363.346 629.427 359.07 639.125C 354.794 648.823 350.487 658.402 346.007 667.656C 341.527 676.91 336.875 685.839 332.391 694.463C 327.908 703.088 323.592 711.409 321.387 719.956C 319.182 728.504 319.087 737.277 320.878 744.9C 322.67 752.522 326.348 758.992 331.27 764.536C 336.193 770.081 342.36 774.7 349.323 776.732C 356.285 778.763 364.042 778.208 371.612 775.956C 379.183 773.705 386.566 769.758 392.83 764.374C 399.094 758.989 404.239 752.167 409.062 745.135C 413.886 738.103 418.388 730.859 422.539 722.795C 426.69 714.732 430.489 705.847 433.085 696.804C 435.681 687.76 437.073 678.558 438.172 669.728C 439.271 660.897 440.075 652.438 440.844 644.75C 441.613 637.063 442.347 630.148 442.347 623.945"/>
<path style="stroke:#FFFFFF; stroke-width:5; stroke-linejoin:round; stroke-linecap:round; fill:none" d="M 80.0612 623.945C 80.0612 630.148 80.7944 637.063 81.5634 644.75C 82.3324 652.438 83.1372 660.897 84.2358 669.728C 85.3344 678.558 86.7269 687.76 89.3227 696.804C 91.9185 705.847 95.7176 714.732 99.8685 722.795C 104.019 730.859 108.522 738.103 113.346 745.135C 118.169 752.167 123.314 758.989 129.578 764.374C 135.842 769.758 143.225 773.705 150.795 775.956C 158.366 778.208 166.123 778.763 173.085 776.732C 180.047 774.7 186.215 770.081 191.138 764.536C 196.06 758.992 199.738 752.522 201.529 744.9C 203.321 737.277 203.226 728.504 201.021 719.956C 198.816 711.409 194.5 703.088 190.016 694.463C 185.533 685.839 180.88 676.91 176.4 667.656C 171.921 658.402 167.613 648.823 163.337 639.125C 159.062 629.427 154.817 619.611 151.004 609.389C 147.19 599.167 143.808 588.539 141.071 577.553C 138.334 566.567 136.243 555.224 134.473 544.223C 132.702 533.221 131.253 522.562 132.697 512.96C 134.142 503.358 138.481 494.814 143.815 488.05C 149.15 481.287 155.481 476.303 162.375 473.103C 169.269 469.902 176.727 468.484 184.011 468.593C 191.295 468.703 198.405 470.34 205.103 472.547C 211.801 474.754 218.087 477.531 224.192 480.579C 230.297 483.627 236.222 486.947 242.31 489.647C 248.399 492.348 254.651 494.43 261.204 494.518"/>
<path style="stroke:#FFFFFF; stroke-width:5; stroke-linejoin:round; stroke-linecap:round; fill:none" d="M 80.0612 430.144L 80.0612 623.945"/>
<path style="stroke:#FFFFFF; stroke-width:5; stroke-linejoin:round; stroke-linecap:round; fill:none" d="M 261.204 546.527C 270.454 548.6 277.012 545.093 283.057 542.521C 289.102 539.949 294.634 538.312 299.091 536.734C 303.548 535.157 306.93 533.64 309.912 532.263C 312.893 530.886 315.473 529.649 318.422 528.781C 321.371 527.913 324.688 527.414 327.557 528.747C 330.426 530.08 332.847 533.245 334.242 537.045C 335.638 540.846 336.009 545.281 336.088 550.327C 336.168 555.372 335.956 561.026 334.856 567.051C 333.756 573.077 331.767 579.473 329.016 586.354C 326.266 593.236 322.753 600.604 319.022 608.483C 315.29 616.363 311.339 624.756 306.789 633.254C 302.239 641.752 297.09 650.355 292.621 658.944C 288.153 667.533 284.365 676.107 280.53 683.646C 276.695 691.184 272.812 697.686 270.228 704.361C 267.644 711.036 266.357 717.883 265.966 725.073C 265.574 732.264 266.077 739.797 266.799 748.842C 267.52 757.888 268.459 768.447 271.931 778.846C 275.403 789.246 281.408 799.487 288.424 807.803C 295.44 816.119 303.467 822.51 311.107 827.506C 318.747 832.503 326.001 836.106 333.849 838.362C 341.697 840.619 350.14 841.53 360.844 841.878C 371.549 842.226 384.515 842.012 397.269 835.82C 410.023 829.629 422.565 817.461 434.377 804.497C 446.189 791.532 457.27 777.771 466.247 763.146C 475.223 748.521 482.093 733.032 487.778 717.498C 493.464 701.963 497.963 686.382 500.856 671.097C 503.748 655.812 505.034 640.822 505.592 624.192"/>
<path style="stroke:#FFFFFF; stroke-width:5; stroke-linejoin:round; stroke-linecap:round; fill:none" d="M 505.592 624.192L 516.903 286.944"/>
<path style="stroke:#FFFFFF; stroke-width:5; stroke-linejoin:round; stroke-linecap:round; fill:none" d="M 516.903 286.944C 517.496 269.26 519.477 252.414 520.866 235.846C 522.255 219.279 523.051 202.991 521.658 187.689C 520.265 172.388 516.683 158.073 512.08 144.499C 507.478 130.924 501.854 118.088 493.68 106.295C 485.505 94.5018 474.778 83.751 463.045 73.3994C 451.312 63.0477 438.573 53.0953 424.393 44.9064C 410.214 36.7176 394.593 30.2924 377.869 24.2297C 361.144 18.167 343.316 12.4667 324.426 8.53076C 305.536 4.59485 285.584 2.42316 261.204 1.88977"/>
<path style="stroke:#FFFFFF; stroke-width:5; stroke-linejoin:round; stroke-linecap:round; fill:none" d="M 261.204 1.88977C 236.824 2.42316 216.872 4.59485 197.982 8.53076C 179.092 12.4667 161.263 18.167 144.539 24.2297C 127.815 30.2924 112.194 36.7176 98.0145 44.9064C 83.8348 53.0953 71.0957 63.0477 59.3628 73.3994C 47.6299 83.751 36.9032 94.5018 28.7282 106.295C 20.5533 118.088 14.9301 130.924 10.3274 144.499C 5.72476 158.073 2.14258 172.388 0.749604 187.689C -0.643373 202.991 0.152853 219.279 1.54168 235.846C 2.9305 252.414 4.91192 269.26 5.50503 286.944"/>
<path style="stroke:#FFFFFF; stroke-width:5; stroke-linejoin:round; stroke-linecap:round; fill:none" d="M 5.50503 286.944L 16.8161 624.192"/>
<path style="stroke:#FFFFFF; stroke-width:5; stroke-linejoin:round; stroke-linecap:round; fill:none" d="M 16.8161 624.192C 17.3738 640.822 18.6594 655.812 21.5521 671.097C 24.4447 686.382 28.9443 701.963 34.6293 717.498C 40.3144 733.032 47.1849 748.521 56.1612 763.146C 65.1374 777.771 76.2192 791.532 88.0311 804.497C 99.8429 817.461 112.385 829.629 125.139 835.82C 137.893 842.012 150.859 842.226 161.563 841.878C 172.268 841.53 180.711 840.619 188.559 838.362C 196.407 836.106 203.66 832.503 211.3 827.506C 218.941 822.51 226.968 816.119 233.984 807.803C 241 799.487 247.005 789.246 250.477 778.846C 253.949 768.447 254.888 757.888 255.609 748.842C 256.33 739.797 256.834 732.264 256.442 725.073C 256.05 717.883 254.764 711.036 252.18 704.361C 249.596 697.686 245.713 691.184 241.878 683.646C 238.043 676.107 234.255 667.533 229.786 658.944C 225.318 650.355 220.169 641.752 215.619 633.254C 211.069 624.756 207.118 616.363 203.386 608.483C 199.654 600.604 196.142 593.236 193.391 586.354C 190.641 579.473 188.652 573.077 187.552 567.051C 186.451 561.026 186.24 555.372 186.32 550.327C 186.399 545.281 186.77 540.846 188.165 537.045C 189.561 533.245 191.982 530.08 194.851 528.747C 197.72 527.414 201.037 527.913 203.986 528.781C 206.934 529.649 209.515 530.886 212.496 532.263C 215.477 533.64 218.86 535.157 223.317 536.734C 227.774 538.312 233.305 539.949 239.35 542.521C 245.395 545.093 251.954 548.6 261.204 546.527"/>
<path style="stroke:#FFFFFF; stroke-width:5; stroke-linejoin:round; stroke-linecap:round; fill:none" d="M 261.204 67.0342C 236.811 67.6992 215.272 69.9398 195.095 74.488C 174.918 79.0362 156.103 85.8921 140.023 93.4309C 123.943 100.97 110.597 109.191 99.7046 118.511C 88.8124 127.831 80.3738 138.248 75.1548 148.739C 69.9358 159.23 67.9364 169.795 67.0499 180.046C 66.1635 190.297 66.39 200.235 67.852 209.701C 69.3139 219.168 72.0114 228.162 76.4729 237.008C 80.9345 245.854 87.1602 254.552 94.6092 257.848C 102.058 261.145 110.73 259.041 118.43 259.041"/>
<path style="stroke:#FFFFFF; stroke-width:5; stroke-linejoin:round; stroke-linecap:round; fill:none" d="M 403.977 259.041C 411.678 259.041 420.35 261.145 427.799 257.848C 435.247 254.552 441.473 245.854 445.935 237.008C 450.396 228.162 453.094 219.168 454.556 209.701C 456.018 200.235 456.244 190.297 455.358 180.046C 454.471 169.795 452.472 159.23 447.253 148.739C 442.034 138.248 433.595 127.831 422.703 118.511C 411.811 109.191 398.465 100.97 382.385 93.4309C 366.305 85.8921 347.49 79.0362 327.313 74.488C 307.136 69.9398 285.596 67.6992 261.204 67.0342"/>
<path style="stroke:#FFFFFF; stroke-width:5; stroke-linejoin:round; stroke-linecap:round; fill:none" d="M 118.43 259.041L 403.977 259.041"/>
</g>
</svg>